<svg xmlns:dc="http://purl.org/dc/elements/1.1/" xmlns:cc="http://creativecommons.org/ns#" xmlns:rdf="http://www.w3.org/1999/02/22-rdf-syntax-ns#" xmlns:svg="http://www.w3.org/2000/svg" xmlns="http://www.w3.org/2000/svg" xmlns:xlink="http://www.w3.org/1999/xlink" xmlns:sodipodi="http://sodipodi.sourceforge.net/DTD/sodipodi-0.dtd" xmlns:inkscape="http://www.inkscape.org/namespaces/inkscape" id="svg3496" sodipodi:version="0.32" inkscape:version="0.46" sodipodi:docname="chapeau Hiruzen Sarutobi.svg" inkscape:output_extension="org.inkscape.output.svg.inkscape" version="1.0" viewBox="8.44 8.15 483.35 627.76">
  <defs id="defs3498">
    <linearGradient inkscape:collect="always" id="linearGradient5562">
      <stop style="stop-color:#b3b3b3;stop-opacity:1;" offset="0" id="stop5564"/>
      <stop style="stop-color:#b3b3b3;stop-opacity:0;" offset="1" id="stop5566"/>
    </linearGradient>
    <linearGradient inkscape:collect="always" id="linearGradient5477">
      <stop style="stop-color:#999999;stop-opacity:1;" offset="0" id="stop5479"/>
      <stop style="stop-color:#999999;stop-opacity:0;" offset="1" id="stop5481"/>
    </linearGradient>
    <linearGradient inkscape:collect="always" id="linearGradient5450">
      <stop style="stop-color:#e6e6e6;stop-opacity:1;" offset="0" id="stop5452"/>
      <stop style="stop-color:#e6e6e6;stop-opacity:0;" offset="1" id="stop5454"/>
    </linearGradient>
    <linearGradient inkscape:collect="always" id="linearGradient4490">
      <stop style="stop-color:#ececec;stop-opacity:1;" offset="0" id="stop4492"/>
      <stop style="stop-color:#ececec;stop-opacity:0;" offset="1" id="stop4494"/>
    </linearGradient>
    <linearGradient inkscape:collect="always" id="linearGradient4468">
      <stop style="stop-color:#f2f2f2;stop-opacity:1;" offset="0" id="stop4470"/>
      <stop style="stop-color:#f2f2f2;stop-opacity:0;" offset="1" id="stop4472"/>
    </linearGradient>
    <inkscape:perspective sodipodi:type="inkscape:persp3d" inkscape:vp_x="0 : 526.18109 : 1" inkscape:vp_y="0 : 1000 : 0" inkscape:vp_z="744.09448 : 526.18109 : 1" inkscape:persp3d-origin="372.04724 : 350.78739 : 1" id="perspective3504"/>
    <inkscape:perspective id="perspective3713" inkscape:persp3d-origin="372.04724 : 350.78739 : 1" inkscape:vp_z="744.09448 : 526.18109 : 1" inkscape:vp_y="0 : 1000 : 0" inkscape:vp_x="0 : 526.18109 : 1" sodipodi:type="inkscape:persp3d"/>
    <linearGradient inkscape:collect="always" xlink:href="#linearGradient4468" id="linearGradient4476" x1="349.95248" y1="851.42175" x2="354.11572" y2="1027.9648" gradientUnits="userSpaceOnUse" gradientTransform="translate(-9.6393922,-224.81656)"/>
    <radialGradient inkscape:collect="always" xlink:href="#linearGradient4490" id="radialGradient4496" cx="-250.33255" cy="272.40042" fx="-250.33255" fy="272.40042" r="65.51403" gradientTransform="matrix(1,0,0,0.9789474,0,5.7347424)" gradientUnits="userSpaceOnUse"/>
    <linearGradient inkscape:collect="always" xlink:href="#linearGradient4468" id="linearGradient4538" gradientUnits="userSpaceOnUse" gradientTransform="translate(-9.6393922,-224.81656)" x1="349.95248" y1="851.42175" x2="354.11572" y2="1027.9648"/>
    <radialGradient inkscape:collect="always" xlink:href="#linearGradient4490" id="radialGradient4540" gradientUnits="userSpaceOnUse" gradientTransform="matrix(1,0,0,0.9789474,0,5.7347424)" cx="-250.33255" cy="272.40042" fx="-250.33255" fy="272.40042" r="65.51403"/>
    <linearGradient inkscape:collect="always" xlink:href="#linearGradient4468" id="linearGradient4556" gradientUnits="userSpaceOnUse" gradientTransform="translate(-40.900976,-293.59749)" x1="349.95248" y1="851.42175" x2="354.11572" y2="1027.9648"/>
    <radialGradient inkscape:collect="always" xlink:href="#linearGradient4490" id="radialGradient4558" gradientUnits="userSpaceOnUse" gradientTransform="matrix(1,0,0,0.9789474,0,5.7347424)" cx="-250.33255" cy="272.40042" fx="-250.33255" fy="272.40042" r="65.51403"/>
    <inkscape:perspective id="perspective5369" inkscape:persp3d-origin="372.04724 : 350.78739 : 1" inkscape:vp_z="744.09448 : 526.18109 : 1" inkscape:vp_y="0 : 1000 : 0" inkscape:vp_x="0 : 526.18109 : 1" sodipodi:type="inkscape:persp3d"/>
    <linearGradient inkscape:collect="always" xlink:href="#linearGradient5450" id="linearGradient5456" x1="195.34041" y1="107.4109" x2="218.79399" y2="147.27794" gradientUnits="userSpaceOnUse" gradientTransform="matrix(0.9780351,0,0,0.9561812,165.88833,7.8701292)"/>
    <linearGradient inkscape:collect="always" xlink:href="#linearGradient5477" id="linearGradient5485" x1="359.20041" y1="121.33018" x2="394.23911" y2="150.56282" gradientUnits="userSpaceOnUse"/>
    <linearGradient inkscape:collect="always" xlink:href="#linearGradient5477" id="linearGradient5513" gradientUnits="userSpaceOnUse" x1="359.20041" y1="121.33018" x2="394.23911" y2="150.56282"/>
    <linearGradient inkscape:collect="always" xlink:href="#linearGradient5477" id="linearGradient5540" gradientUnits="userSpaceOnUse" x1="359.20041" y1="121.33018" x2="394.23911" y2="150.56282"/>
    <linearGradient inkscape:collect="always" xlink:href="#linearGradient5562" id="linearGradient5568" x1="171.93466" y1="441.31171" x2="245.85484" y2="441.31171" gradientUnits="userSpaceOnUse"/>
    <linearGradient inkscape:collect="always" xlink:href="#linearGradient5562" id="linearGradient5572" gradientUnits="userSpaceOnUse" x1="390.4509" y1="441.31171" x2="315.28992" y2="441.31171" gradientTransform="translate(-7.8989106e-2,1.6043015e-2)"/>
    <filter inkscape:collect="always" id="filter5698">
      <feGaussianBlur inkscape:collect="always" stdDeviation="0.37472406" id="feGaussianBlur5700"/>
    </filter>
    <filter inkscape:collect="always" id="filter5702" x="-0.12006629" width="1.2401326" y="-0.0037966762" height="1.0075934">
      <feGaussianBlur inkscape:collect="always" stdDeviation="0.37472406" id="feGaussianBlur5704"/>
    </filter>
    <filter inkscape:collect="always" id="filter5706">
      <feGaussianBlur inkscape:collect="always" stdDeviation="0.37472406" id="feGaussianBlur5708"/>
    </filter>
    <filter inkscape:collect="always" id="filter5710" x="-0.16378249" width="1.327565" y="-0.0041944622" height="1.0083889">
      <feGaussianBlur inkscape:collect="always" stdDeviation="0.37472406" id="feGaussianBlur5712"/>
    </filter>
    <filter inkscape:collect="always" id="filter5714">
      <feGaussianBlur inkscape:collect="always" stdDeviation="0.37472406" id="feGaussianBlur5716"/>
    </filter>
    <filter inkscape:collect="always" id="filter5718">
      <feGaussianBlur inkscape:collect="always" stdDeviation="0.37472406" id="feGaussianBlur5720"/>
    </filter>
    <filter inkscape:collect="always" id="filter5722">
      <feGaussianBlur inkscape:collect="always" stdDeviation="0.37472406" id="feGaussianBlur5724"/>
    </filter>
    <filter inkscape:collect="always" id="filter5726">
      <feGaussianBlur inkscape:collect="always" stdDeviation="0.37472406" id="feGaussianBlur5728"/>
    </filter>
    <linearGradient inkscape:collect="always" xlink:href="#linearGradient5477" id="linearGradient5773" gradientUnits="userSpaceOnUse" x1="359.20041" y1="121.33018" x2="394.23911" y2="150.56282"/>
    <linearGradient inkscape:collect="always" xlink:href="#linearGradient5562" id="linearGradient5798" gradientUnits="userSpaceOnUse" x1="171.93466" y1="441.31171" x2="245.85484" y2="441.31171"/>
    <linearGradient inkscape:collect="always" xlink:href="#linearGradient5562" id="linearGradient5800" gradientUnits="userSpaceOnUse" gradientTransform="translate(-7.8989106e-2,1.6043015e-2)" x1="390.4509" y1="441.31171" x2="315.28992" y2="441.31171"/>
    <linearGradient inkscape:collect="always" xlink:href="#linearGradient5477" id="linearGradient5804" gradientUnits="userSpaceOnUse" x1="359.20041" y1="121.33018" x2="394.23911" y2="150.56282"/>
  </defs>
  <sodipodi:namedview id="base" pagecolor="#ffffff" bordercolor="#666666" borderopacity="1.0" inkscape:pageopacity="0.0" inkscape:pageshadow="2" inkscape:zoom="0.60772017" inkscape:cx="278.73121" inkscape:cy="400.14" inkscape:document-units="px" inkscape:current-layer="g5743" showgrid="false" inkscape:window-width="1280" inkscape:window-height="968" inkscape:window-x="-4" inkscape:window-y="-4"/>
  <metadata id="metadata3501">
    <rdf:RDF>
      <cc:Work rdf:about="">
        <dc:format>image/svg+xml</dc:format>
        <dc:type rdf:resource="http://purl.org/dc/dcmitype/StillImage"/>
      </cc:Work>
    </rdf:RDF>
  </metadata>
  <g inkscape:groupmode="layer" id="layer3" inkscape:label="dessin" style="display:inline">
    <g style="display:inline" id="g5743" transform="translate(-28.616105,-22.751994)">
      <path id="path5536" d="M 141.0475,252.80146 C 141.0475,268.63581 141.0475,284.47016 141.0475,300.30451 C 141.0475,315.20479 141.77832,329.983 141.77832,344.88429 C 141.77832,370.72872 141.77832,396.4505 141.77832,422.35079 C 141.77832,444.80156 141.20664,467.21942 143.23995,489.58587 C 145.98912,519.82671 161.29359,532.2705 173.20341,556.09013 C 176.10661,561.89653 177.58831,581.26268 177.58831,587.51523 C 177.58831,592.88288 208.16812,575.12951 212.66748,573.62972 C 241.12971,564.14231 263.87336,571.28504 288.67235,586.78441 C 303.04969,595.77025 318.66459,590.29808 333.98295,593.36175 C 346.80717,595.9266 352.94116,592.51058 362.48477,586.78441 C 371.44669,581.40726 373.7412,572.52885 377.1011,564.12911 C 386.6596,540.23285 389.58275,509.02898 394.64068,483.73934 C 401.81599,447.86278 407.79537,426.21461 407.79537,388.73325 C 407.79537,358.61205 403.41048,328.61979 403.41048,298.11206 C 403.41048,280.32887 403.41048,262.54568 403.41048,244.76248" style="fill:#f9f9f9;fill-opacity:1;fill-rule:evenodd;stroke:#000000;stroke-width:1px;stroke-linecap:butt;stroke-linejoin:miter;stroke-opacity:1;display:inline"/>
      <path sodipodi:nodetypes="cccsscccc" id="path5530" d="M 113.18205,238.06198 C 109.26973,303.79121 102.07976,387.04179 102.07976,452.88113 C 65.755865,548.48763 55.478991,530.9757 40.691208,563.15052 C 41.982908,569.60904 52.969478,578.52734 57.499978,582.15174 C 66.974788,589.73159 87.687238,591.39884 99.887308,597.49888 C 109.79566,602.45305 113.25144,609.61082 118.15771,619.42336 C 139.81906,660.76208 161.6468,649.41035 198.54748,658.15661 C 205.94343,608.92147 206.95247,560.71932 200.00911,511.34642 C 197.67452,442.59544 202.42214,332.13418 204.6741,264.16449" style="fill:#f9f9f9;fill-opacity:1;fill-rule:evenodd;stroke:#000000;stroke-width:1px;stroke-linecap:butt;stroke-linejoin:miter;stroke-opacity:1;display:inline"/>
      <path sodipodi:nodetypes="csccsscccsssscc" id="path5532" d="M 464.56453,223.59589 C 464.56453,217.74936 464.56453,257.75324 464.56453,263.59977 C 464.56453,276.11315 464.87056,289.95944 463.1029,302.33302 C 441.2505,374.98919 480.6789,420.7298 498.18207,484.30622 C 499.97876,493.28965 512.93172,511.9676 515.13326,520.7738 C 516.84513,527.62127 516.27879,529.44499 512.94082,536.12093 C 509.00657,543.98943 504.20963,545.89472 496.13205,554.39134 C 466.01548,601.32489 413.25696,583.02156 397.47901,631.5144 C 393.26881,643.84035 373.76326,642.63644 362.43665,643.7812 C 356.21973,645.33543 361.11134,627.2899 360.05783,620.96883 C 359.11342,615.30235 358.97556,609.29781 359.63068,603.55593 C 359.74776,602.52974 359.89017,601.51195 360.05783,600.50598 C 361.73659,590.43346 363.71191,581.0734 363.71191,570.54252 C 363.71191,561.52912 363.71191,552.51572 363.71191,543.50233 C 357.68287,460.15997 369.70059,323.92804 365.35991,279.19076" style="fill:#f9f9f9;fill-opacity:1;fill-rule:evenodd;stroke:#000000;stroke-width:1px;stroke-linecap:butt;stroke-linejoin:miter;stroke-opacity:1;display:inline"/>
      <path id="path5552" d="M 340.57907,593.01299 C 340.32605,592.76 331.20996,592.13894 320.32106,591.63285 C 298.19017,590.60426 296.93257,590.29465 283.16429,582.48513 C 265.25528,572.32693 246.50343,567.17356 232.64389,568.60108 C 224.68896,569.42042 213.77584,571.95431 209.95079,573.8701 C 208.43423,574.62967 206.7824,575.25111 206.28,575.25111 C 205.77762,575.25111 205.04357,566.17605 204.64886,555.08431 C 204.25414,543.99257 203.51671,532.16053 203.01015,528.79088 C 200.69153,513.36741 199.94074,473.89001 200.99059,422.59607 C 202.12442,367.19863 204.52793,291.54393 205.17278,290.95376 C 205.38595,290.75868 223.02126,297.2422 244.36234,305.36163 C 265.70341,313.48106 284.32001,320.12449 285.73257,320.12479 C 291.7114,320.12605 326.01105,307.13788 351.13665,295.35834 C 358.19468,292.04937 364.28299,289.342 364.66627,289.342 C 365.88058,289.342 365.41944,320.56277 363.23353,386.34688 C 361.4409,440.29628 361.21774,460.3513 361.79064,516.02708 C 362.22981,558.70773 362.11253,582.81262 361.45739,584.51452 C 360.7549,586.33931 358.62592,587.93836 354.48069,589.75452 C 348.72442,592.27649 341.52911,593.96306 340.57904,593.013 L 340.57907,593.01299 z" style="opacity:0.83754518;fill:url(#linearGradient5798);fill-opacity:1;fill-rule:nonzero;stroke:none;stroke-width:2;stroke-linecap:round;stroke-miterlimit:4;stroke-dasharray:none;stroke-opacity:1;display:inline"/>
      <path id="path5570" d="M 340.50008,593.02903 C 340.24706,592.77604 331.13097,592.15498 320.24207,591.64889 C 298.11118,590.6203 296.85358,590.31069 283.0853,582.50117 C 265.17629,572.34297 246.42444,567.1896 232.5649,568.61712 C 224.60997,569.43646 213.69685,571.97035 209.8718,573.88614 C 208.35524,574.64571 206.70341,575.26715 206.20101,575.26715 C 205.69863,575.26715 204.96458,566.19209 204.56987,555.10035 C 204.17515,544.00861 203.43772,532.17657 202.93116,528.80692 C 200.61254,513.38345 199.86175,473.90605 200.9116,422.61211 C 202.04543,367.21467 204.44894,291.55997 205.09379,290.9698 C 205.30696,290.77472 222.94227,297.25824 244.28335,305.37767 C 265.62442,313.4971 284.24102,320.14053 285.65358,320.14083 C 291.63241,320.14209 325.93206,307.15392 351.05766,295.37438 C 358.11569,292.06541 364.204,289.35804 364.58728,289.35804 C 365.80159,289.35804 365.34045,320.57881 363.15454,386.36292 C 361.36191,440.31232 361.13875,460.36734 361.71165,516.04312 C 362.15082,558.72377 362.03354,582.82866 361.3784,584.53056 C 360.67591,586.35535 358.54693,587.9544 354.4017,589.77056 C 348.64543,592.29253 341.45012,593.9791 340.50005,593.02904 L 340.50008,593.02903 z" style="opacity:0.83754518;fill:url(#linearGradient5800);fill-opacity:1;fill-rule:nonzero;stroke:none;stroke-width:2;stroke-linecap:round;stroke-miterlimit:4;stroke-dasharray:none;stroke-opacity:1;display:inline"/>
      <path sodipodi:nodetypes="ccc" id="path5576" d="M 131.72241,255.03733 C 131.72241,270.69426 131.72241,294.52002 131.72241,310.17694 C 129.36077,327.94093 119.9807,354.05035 106.19481,366.33766" style="fill:none;fill-rule:evenodd;stroke:#000000;stroke-width:1px;stroke-linecap:butt;stroke-linejoin:miter;stroke-opacity:1;display:inline;filter:url(#filter5722)"/>
      <path id="path5580" d="M 162.46593,299.00344 C 160.82589,320.29193 161.44483,341.88691 161.44483,363.33299 C 161.44483,378.26259 156.62508,390.2093 154.2971,404.17715 C 152.54156,414.71041 151.22041,424.66614 149.19158,434.81027 C 148.07155,440.41044 145.41562,445.42551 143.06496,450.12683" style="fill:none;fill-rule:evenodd;stroke:#000000;stroke-width:1px;stroke-linecap:butt;stroke-linejoin:miter;stroke-opacity:1;display:inline;filter:url(#filter5726)"/>
      <path id="path5622" d="M 131.49473,433.90644 C 128.11287,450.81577 134.32042,471.99551 139.66357,488.02495 C 148.11376,513.37553 156.19315,537.42179 168.25448,561.54444 C 172.97434,570.98416 179.97113,576.75682 182.54993,587.07204" style="fill:none;fill-rule:evenodd;stroke:#000000;stroke-width:1px;stroke-linecap:butt;stroke-linejoin:miter;stroke-opacity:1;display:inline;filter:url(#filter5718)" transform="matrix(0.988929,0.1483895,-0.1483895,0.988929,85.711792,28.496386)"/>
      <path id="path5624" d="M 114.24637,472.52559 C 121.90283,487.83852 121.3941,509.42346 121.3941,526.6441 C 121.3941,537.20762 119.16828,545.483 115.26747,555.23501 C 112.44001,562.30368 113.22526,572.1403 113.22526,579.74151" style="fill:none;fill-rule:evenodd;stroke:#000000;stroke-width:1px;stroke-linecap:butt;stroke-linejoin:miter;stroke-opacity:1;display:inline;filter:url(#filter5714)"/>
      <path id="path5626" d="M 388.01951,267.29058 C 385.07539,292.15458 393.07343,319.57328 386.99841,343.87338 C 382.16926,363.18998 386.99841,390.17549 386.99841,410.24513 C 386.99841,425.02883 389.52487,443.02567 385.9773,457.21592 C 384.23769,464.17435 385.9773,473.4852 385.9773,480.70131" style="fill:none;fill-rule:evenodd;stroke:#000000;stroke-width:1px;stroke-linecap:butt;stroke-linejoin:miter;stroke-opacity:1;display:inline;filter:url(#filter5710)"/>
      <path id="path5628" d="M 414.85453,445.07995 C 415.68171,474.68109 401.29386,530.26631 401.29386,552.17859 C 401.29386,575.21285 396.6969,605.28398 391.08282,627.74028" style="fill:none;fill-rule:evenodd;stroke:#000000;stroke-width:1px;stroke-linecap:butt;stroke-linejoin:miter;stroke-opacity:1;display:inline;filter:url(#filter5706)" sodipodi:nodetypes="csc"/>
      <path id="path5630" d="M 424.77925,270.35389 C 424.77925,315.10289 422.89968,361.67473 427.84257,406.16072 C 431.29256,437.21067 430.90588,467.81873 430.90588,499.08118 C 430.90588,505.77299 430.12092,504.57591 429.88477,506.22891" style="fill:none;fill-rule:evenodd;stroke:#000000;stroke-width:1px;stroke-linecap:butt;stroke-linejoin:miter;stroke-opacity:1;display:inline;filter:url(#filter5702)"/>
      <path id="path5632" d="M 446.22244,358.16883 C 446.22244,364.63582 446.22244,371.10282 446.22244,377.56981 C 446.22244,398.91483 450.63137,459.90715 460.51789,479.6802 C 461.87936,482.40315 463.24084,485.12609 464.60231,487.84904 C 469.54702,497.73846 476.85556,513.3026 476.85556,524.60878 C 476.85556,534.69936 480.93997,543.34179 480.93997,553.19969 C 480.93997,553.88043 480.93997,554.56116 480.93997,555.2419" style="fill:none;fill-rule:evenodd;stroke:#000000;stroke-width:1px;stroke-linecap:butt;stroke-linejoin:miter;stroke-opacity:1;display:inline;filter:url(#filter5698)"/>
      <g transform="translate(1.4239937,-3.4205165)" id="g5497" style="display:inline">
        <path style="fill:#ffffff;fill-rule:evenodd;stroke:#000000;stroke-width:2;stroke-linecap:butt;stroke-linejoin:miter;stroke-miterlimit:4;stroke-dasharray:none;stroke-opacity:1;display:inline" d="M 36.958441,217.38571 C 153.652,111.80987 271.19522,35.346233 271.55963,35.321101 C 463.00264,141.0839 517.83008,202.89915 517.98412,203.07132 C 351.65966,308.19811 285.01634,322.43804 283.72924,322.52579 C 38.493311,231.62808 36.627417,217.86225 36.630323,217.85353" id="path5377" sodipodi:nodetypes="ccccc"/>
        <path style="opacity:1;fill:#ffffff;fill-opacity:1;fill-rule:nonzero;stroke:#00000e;stroke-width:2;stroke-linecap:round;stroke-miterlimit:4;stroke-dasharray:none;stroke-opacity:1;display:inline" d="M 59.434334,214.29967 L 47.833359,208.7297 L 50.359396,206.51771 C 106.52619,157.33398 160.6344,114.41326 220.85262,71.275939 C 239.44864,57.954675 270.76174,36.583435 271.684,36.583435 C 272.42786,36.583435 306.69451,56.013181 326.30082,67.552058 C 398.975,110.32289 458.29905,151.06523 497.87313,185.3838 L 506.8845,193.19847 L 500.16576,197.18397 C 420.08007,249.58454 364.99985,279.89403 281.37073,305.64585 C 204.25692,282.58299 131.77591,249.1172 59.434334,214.29967 z" id="path5387" sodipodi:nodetypes="cccsssccccc"/>
        <path style="opacity:1;fill:#b11d1d;fill-opacity:1;fill-rule:nonzero;stroke:#000000;stroke-width:2;stroke-linecap:round;stroke-miterlimit:4;stroke-dasharray:none;stroke-opacity:1;display:inline" d="M 47.639855,208.23713 L 50.165895,206.02514 C 106.33269,156.84141 160.4409,113.92069 220.65912,70.783368 C 239.25514,57.462104 270.56824,36.090864 271.4905,36.090864 C 272.23436,36.090864 306.50101,55.52061 326.10732,67.059487 C 398.7815,109.83032 458.10555,150.57266 497.67963,184.89123 L 506.691,192.7059 C 465.35088,220.89612 420.82748,249.70973 373.41834,269.92059 C 371.44014,270.31623 370.0453,266.65143 365.24907,261.0555 C 362.38051,257.70863 351.72701,246.41973 341.57465,235.96906 C 331.42229,225.51839 312.76027,206.11523 300.10346,192.85091 C 287.44665,179.5866 276.62778,168.62449 276.06152,168.49067 C 273.22026,167.81921 233.2387,213.33217 197.04269,258.44166 C 191.31786,265.57625 186.39679,271.40263 186.10694,271.38917 C 139.34748,251.54603 92.337782,232.20335 47.639855,208.23713 z" id="path5389" sodipodi:nodetypes="ccssscccssssscc"/>
        <path id="text2479" d="M 278.64048,246.57363 C 273.99709,264.76538 263.38368,278.05931 246.80029,286.4555 L 242.82026,275.96027 C 263.6048,267.56409 273.99709,250.91167 273.99712,226.00298 L 273.99712,192.83804 L 281.6255,193.67765 C 282.95213,194.23748 282.95213,195.35698 281.6255,197.03613 L 281.6255,226.00298 C 281.62545,247.55322 292.68107,263.78582 314.79238,274.70084 L 311.47569,285.19607 C 294.89219,276.79989 283.94714,263.92576 278.64048,246.57363 L 278.64048,246.57363 z M 308.49068,218.86621 C 304.28946,230.06118 300.75166,238.03755 297.87727,242.79535 L 291.24389,237.33783 C 295.22387,230.62093 298.87221,221.94488 302.18896,211.30964 L 309.48568,215.92754 C 310.81226,216.76722 310.4806,217.74679 308.49068,218.86621 L 308.49068,218.86621 z M 248.45863,241.11611 C 251.55417,233.83946 252.99141,224.46372 252.77032,212.98888 L 261.06204,215.50773 C 262.83092,216.34741 262.83092,217.32697 261.06204,218.4464 C 261.06202,226.56277 259.62478,235.23883 256.75034,244.47458 L 248.45863,241.11611 z" style="font-size:72px;font-style:normal;font-variant:normal;font-weight:normal;font-stretch:normal;text-align:start;line-height:125%;text-anchor:start;fill:#b11d1d;fill-opacity:1;stroke:none;stroke-width:1px;stroke-linecap:butt;stroke-linejoin:miter;stroke-opacity:1;display:inline;font-family:MS Gothic"/>
        <g id="g5487">
          <path style="fill:#ffffff;fill-rule:evenodd;stroke:#000000;stroke-width:2;stroke-linecap:butt;stroke-linejoin:miter;stroke-miterlimit:4;stroke-dasharray:none;stroke-opacity:1" d="M 385.3786,98.825066 C 366.54492,120.64568 362.15723,124.85506 345.88947,145.78761 C 343.83705,148.78161 342.84617,153.50136 345.80418,156.26142 C 347.82795,158.80686 353.08269,159.38315 353.80802,155.41188 C 354.46608,152.39562 354.64765,151.87526 355.95856,149.02854 C 366.43003,136.67407 375.02481,125.18591 388.30956,109.56029 C 389.73039,106.78977 393.13971,103.06948 390.55186,100.058 C 389.18051,98.80288 387.15824,98.481034 385.3786,98.825066 z" id="path5413" sodipodi:nodetypes="cccccccc"/>
          <path style="fill:url(#linearGradient5804);fill-opacity:1;fill-rule:evenodd;stroke:none;stroke-width:2;stroke-linecap:butt;stroke-linejoin:miter;stroke-miterlimit:4;stroke-dasharray:none;stroke-opacity:1;display:inline" d="M 385.71785,99.984676 C 366.88417,121.80529 363.1422,125.04609 346.87444,145.97864 C 344.82202,148.97264 343.26614,152.56239 346.22415,155.32245 C 348.24792,157.86789 352.29194,159.0899 353.01727,155.11863 C 353.67533,152.10237 353.93761,151.42058 355.24852,148.57386 C 365.71999,136.21939 374.31477,124.5698 387.59952,108.94418 C 389.02035,106.17366 392.18753,103.42194 389.59968,100.41046 C 388.22833,99.155341 387.49749,99.640644 385.71785,99.984676 z" id="path5467" sodipodi:nodetypes="cccccccc"/>
        </g>
        <use x="0" y="0" xlink:href="#g5487" id="use5491" transform="translate(43.848965,28.501827)" width="600" height="350"/>
      </g>
    </g>
  </g>
  <g inkscape:groupmode="layer" id="layer4" inkscape:label="corde" style="display:inline">
    <g id="g5458"/>
  </g>
</svg>